<svg width="40" height="40" viewBox="0 0 40 40" fill="none" xmlns="http://www.w3.org/2000/svg">
<path d="M20 5L3.75 8.75V11.25L20 7.5L36.25 11.25V8.75L20 5ZM12.5 12.5C8.46625 12.5 4.53125 14.1412 4.53125 14.1412L3.75 14.4913V33.75H17.8512C18.2863 34.4975 19.0763 35 20 35C20.9225 35 21.7137 34.4975 22.1488 33.75H36.25V14.4925L35.4688 14.1412C35.4688 14.1412 31.5338 12.5 27.5 12.5C23.8525 12.5 20.65 13.725 20 13.985C19.35 13.725 16.1475 12.5 12.5 12.5ZM12.5 15C14.9175 15 17.5 15.7812 18.75 16.2113V30.1175C17.3588 29.6588 15.0737 29.0238 12.5 29.0238C9.8725 29.0238 7.73375 29.6287 6.25 30.1175V16.2113C7.2125 15.8625 9.75 15 12.5 15ZM27.5 15C30.25 15 32.7875 15.8637 33.75 16.2113V30.1175C32.265 29.63 30.1275 29.0238 27.5 29.0238C24.9263 29.0238 22.6413 29.6588 21.25 30.1175V16.2113C22.5 15.7812 25.0825 15 27.5 15Z" fill="#C65E34"/>
</svg>
