<svg width="40" height="40" viewBox="0 0 40 40" fill="none" xmlns="http://www.w3.org/2000/svg">
<path d="M35 16.6667H31.6667V6.66667H33.3334V3.33334H6.66671V6.66667H8.33337V16.6667H5.00004C4.55801 16.6667 4.13409 16.8423 3.82153 17.1548C3.50897 17.4674 3.33337 17.8913 3.33337 18.3333V33.3333H36.6667V18.3333C36.6667 17.8913 36.4911 17.4674 36.1786 17.1548C35.866 16.8423 35.4421 16.6667 35 16.6667ZM23.3334 30V23.3333H16.6667V30H11.6667V6.66667H28.3334V30H23.3334Z" fill="#28626B"/>
<path d="M15 10H18.3333V13.3333H15V10ZM21.6667 10H25V13.3333H21.6667V10ZM15 16.6667H18.3333V20H15V16.6667ZM21.6667 16.6667H25V20H21.6667V16.6667Z" fill="#35828E"/>
</svg>
