<svg width="40" height="40" viewBox="0 0 40 40" fill="none" xmlns="http://www.w3.org/2000/svg">
<path d="M20 18.3333C20.9205 18.3333 21.6667 17.5871 21.6667 16.6667C21.6667 15.7462 20.9205 15 20 15C19.0796 15 18.3334 15.7462 18.3334 16.6667C18.3334 17.5871 19.0796 18.3333 20 18.3333Z" stroke="#1B5390" stroke-width="2.5" stroke-linecap="round" stroke-linejoin="round"/>
<path d="M10 28.3333V28.35M10 21.6667V21.6833M30 28.3333V28.35M30 21.6667V21.6833M36.6667 33.3333V13.3333H30L20 6.66667L10 13.3333H3.33337V33.3333C3.33337 34.2174 3.68456 35.0652 4.30968 35.6904C4.93481 36.3155 5.78265 36.6667 6.66671 36.6667H33.3334C34.2174 36.6667 35.0653 36.3155 35.6904 35.6904C36.3155 35.0652 36.6667 34.2174 36.6667 33.3333Z" stroke="#1B5390" stroke-width="2.5" stroke-linecap="round" stroke-linejoin="round"/>
<path d="M23.3334 36.6667V28.3333C23.3334 27.4493 22.9822 26.6014 22.3571 25.9763C21.732 25.3512 20.8841 25 20.0001 25C19.116 25 18.2682 25.3512 17.6431 25.9763C17.0179 26.6014 16.6667 27.4493 16.6667 28.3333V36.6667" stroke="#1B5390" stroke-width="2.5" stroke-linecap="round" stroke-linejoin="round"/>
</svg>
