<svg width="32" height="32" viewBox="0 0 32 32" fill="none" xmlns="http://www.w3.org/2000/svg">
<g clip-path="url(#clip0_194_5960)">
<path d="M18 9.50016C18 9.10233 18.158 8.7208 18.4393 8.4395C18.7206 8.15819 19.1022 8.00016 19.5 8.00016H27.5C27.7965 8.00042 28.0862 8.08854 28.3326 8.25338C28.5791 8.41821 28.7711 8.65239 28.8846 8.92631C28.998 9.20024 29.0277 9.50163 28.9699 9.79243C28.9121 10.0832 28.7695 10.3504 28.56 10.5602L24.78 14.3442C25.404 14.4962 25.988 14.7042 26.514 14.9822C27.998 15.7642 29.002 17.1082 29.002 18.9922C29.002 20.2982 28.54 21.4082 27.744 22.2462C26.972 23.0622 25.956 23.5522 24.928 23.8002C22.908 24.2862 20.478 23.9262 18.68 22.7462C18.3725 22.5177 18.164 22.1804 18.097 21.8032C18.03 21.426 18.1097 21.0375 18.3197 20.7172C18.5297 20.3968 18.8542 20.1688 19.2267 20.0797C19.5993 19.9907 19.9918 20.0474 20.324 20.2382C21.392 20.9382 22.964 21.1862 24.226 20.8822C24.838 20.7362 25.286 20.4802 25.566 20.1842C25.824 19.9122 26.002 19.5442 26.002 18.9922C26.002 18.3762 25.756 17.9742 25.114 17.6362C24.368 17.2422 23.154 17.0002 21.502 17.0002C21.2055 16.9999 20.9157 16.9118 20.6693 16.7469C20.4229 16.5821 20.2308 16.3479 20.1174 16.074C20.004 15.8001 19.9743 15.4987 20.0321 15.2079C20.0898 14.9171 20.2325 14.6499 20.442 14.4402L23.882 11.0002H19.5C19.1022 11.0002 18.7206 10.8421 18.4393 10.5608C18.158 10.2795 18 9.89798 18 9.50016ZM10.826 21.0262C10.126 20.9262 9.28598 21.2522 8.85998 22.1702C8.77965 22.3529 8.66365 22.5178 8.51879 22.6551C8.37392 22.7924 8.20311 22.8994 8.01635 22.9699C7.82959 23.0404 7.63064 23.0729 7.43116 23.0655C7.23169 23.0581 7.0357 23.0109 6.85468 22.9268C6.67366 22.8427 6.51125 22.7233 6.37697 22.5756C6.24268 22.4279 6.13923 22.2549 6.07267 22.0667C6.00611 21.8785 5.97777 21.6789 5.98933 21.4796C6.00089 21.2804 6.05211 21.0854 6.13998 20.9062C7.15598 18.7182 9.31798 17.7762 11.256 18.0562C13.256 18.3462 15 19.9462 15 22.5002C15 25.3662 12.824 26.8842 11.42 27.8622C10.804 28.2942 10.278 28.6562 9.87598 29.0082H14C14.3978 29.0082 14.7793 29.1662 15.0606 29.4475C15.3419 29.7288 15.5 30.1103 15.5 30.5082C15.5 30.906 15.3419 31.2875 15.0606 31.5688C14.7793 31.8501 14.3978 32.0082 14 32.0082H7.49998C7.10216 32.0082 6.72063 31.8501 6.43932 31.5688C6.15802 31.2875 5.99998 30.906 5.99998 30.5082C5.99998 29.1282 6.59998 28.0862 7.33998 27.2882C8.03598 26.5442 8.93998 25.9362 9.63998 25.4482C11.24 24.3282 12 23.6402 12 22.5002C12 21.5542 11.466 21.1202 10.826 21.0262ZM11.208 0.17816C11.4472 0.306256 11.6473 0.496864 11.7867 0.729673C11.9262 0.962482 11.9999 1.22877 12 1.50016V11.0402H13.422C13.8198 11.0402 14.2013 11.1982 14.4826 11.4795C14.7639 11.7608 14.922 12.1423 14.922 12.5402C14.922 12.938 14.7639 13.3195 14.4826 13.6008C14.2013 13.8821 13.8198 14.0402 13.422 14.0402H7.51798C7.12016 14.0402 6.73863 13.8821 6.45732 13.6008C6.17602 13.3195 6.01798 12.938 6.01798 12.5402C6.01798 12.1423 6.17602 11.7608 6.45732 11.4795C6.73863 11.1982 7.12016 11.0402 7.51798 11.0402H8.99998V4.30016L8.33198 4.74616C8.00096 4.96162 7.59832 5.03783 7.21145 4.95824C6.82458 4.87866 6.48472 4.64969 6.26563 4.32106C6.04654 3.99243 5.96591 3.59065 6.04124 3.20293C6.11657 2.81521 6.34178 2.47285 6.66798 2.25016L9.66798 0.25016C9.89394 0.0995958 10.1565 0.0131898 10.4277 0.000157413C10.699 -0.012875 10.9686 0.0479551 11.208 0.17616V0.17816Z" fill="#C65E34"/>
</g>
<defs>
<clipPath id="clip0_194_5960">
<rect width="32" height="32" fill="white"/>
</clipPath>
</defs>
</svg>
