<svg width="32" height="32" viewBox="0 0 32 32" fill="none" xmlns="http://www.w3.org/2000/svg">
<path d="M19.2 5.12V26.24H3.84003V5.12H19.2ZM21.76 2.56H1.28003V29.44H21.76V2.56ZM5.76003 7.68H17.28V10.24H5.76003V7.68ZM5.76003 12.16H17.28V14.72H5.76003V12.16ZM5.76003 16.64H17.28V19.2H5.76003V16.64ZM5.76003 21.12H17.28V23.68H5.76003V21.12ZM25.6 7.68H30.72V25.6H25.6V7.68ZM28.1639 0.639999C26.7597 0.639999 25.6 1.7696 25.6 3.15968V5.76H30.72V3.15968C30.72 1.7696 29.5623 0.639999 28.1639 0.639999ZM25.5603 27.52L28.1466 31.6077L30.72 27.52H25.5603Z" fill="#28626B"/>
</svg>
