<svg width="40" height="40" viewBox="0 0 40 40" fill="none" xmlns="http://www.w3.org/2000/svg">
<path d="M20 7.00078L1.75671 13.8422L20 22.9638L28.6891 18.6193L20.5377 16.1271C20.3699 16.2076 20.1862 16.2496 20 16.25C19.6685 16.25 19.3505 16.1183 19.1161 15.8839C18.8817 15.6495 18.75 15.3315 18.75 15C18.75 14.6685 18.8817 14.3505 19.1161 14.1161C19.3505 13.8817 19.6685 13.75 20 13.75L19.7933 14.422L21.2415 14.8676C21.2417 14.869 21.2419 14.8705 21.2421 14.8719L23.3791 15.5255L35.5469 19.2691V20.218C35.3786 20.3325 35.2408 20.4864 35.1455 20.6663C35.0502 20.8461 35.0002 21.0465 35 21.2501C35.0002 21.4583 35.0525 21.6632 35.152 21.8461C35.2515 22.029 35.3951 22.1841 35.5698 22.2974C35.0008 24.4478 35 29.3268 35 31.25C36.25 32.0621 36.25 32.0918 37.5 31.25C37.5 29.327 37.4994 24.449 36.9305 22.2981C37.1052 22.1847 37.2489 22.0294 37.3483 21.8464C37.4478 21.6633 37.4999 21.4583 37.5 21.25C37.5 21.0462 37.4501 20.8455 37.3548 20.6654C37.2595 20.4853 37.1216 20.3313 36.9531 20.2166V18.2307L32.3184 16.8047L38.2433 13.8422L20 7.00078ZM9.34554 19.4531L8.32031 25.6047C10.3652 25.8721 12.8114 27.0607 15.0602 28.4662C16.3391 29.2655 17.5369 30.143 18.5098 30.9943C19.1045 31.5146 19.6018 32.0138 20 32.505C20.3982 32.0137 20.8955 31.5146 21.4902 30.9943C22.463 30.143 23.6609 29.2655 24.9398 28.4662C27.1886 27.0607 29.6348 25.8721 31.6797 25.6047L30.6543 19.4531H30.166L20 24.5362L9.83382 19.4531H9.34554Z" fill="#1B5390"/>
</svg>
